<svg id="Layer_1" data-name="Layer 1" xmlns="http://www.w3.org/2000/svg" viewBox="0 0 663.71 104.75"><defs><style>.cls-1{fill:#495ca9;}.cls-2{fill:#214081;}.cls-3{fill:#81c347;}</style></defs><path class="cls-1" d="M513.69,355a9.72,9.72,0,0,0-.4,1.53c-.09,2.08-.22,4.16-.21,6.24a44.14,44.14,0,0,0,16,34.59c17.17,14.66,40.53,15.13,58.63,1.64,1.32-1,1.27-1.67.36-2.82a13.16,13.16,0,0,1-2.65-8.38,22,22,0,0,1,3.86-12.12c3.06-4.84,1.12-9.36-4.33-10.59-8.86-2-12-10.07-7.57-17.43,2.74-4.51,7.12-6.42,12.08-7.29A41.88,41.88,0,0,1,598,340c1.14,0,1.76-.16,1.07-1.54-2.25-4.49-5.45-7.12-10.85-7.12-4.33,0-8.08.64-11.09,4a20,20,0,0,1-3.61,2.8c-2.81,2-5.76,2.78-8.89.67a8.67,8.67,0,0,1-4-9.17,19.42,19.42,0,0,1,2.68-7.18c.94-1.54,1.92-3,2.93-4.55.47-.68.78-1.29-.37-1.46a42.17,42.17,0,0,0-16.42.63,46.63,46.63,0,0,1,5.08,10.26c3.07,9.38,1,17.3-9.51,21a10.7,10.7,0,0,0-1.89.85c-1.25.75-2.75,1.42-1.71,3.35a3.05,3.05,0,0,0,4.37,1.45c1.13-.54,2.22-1.15,3.3-1.78a10.92,10.92,0,0,1,6.39-1.48,9.62,9.62,0,0,1,8.12,13.74c-1,2.11-2.26,4.14-3.35,6.24a6.16,6.16,0,0,0-.61,5.23c2.58,6.61.83,12.71-2.24,18.59-2,3.73-4.45,7.08-8.25,9.17-6.17,3.4-11.72.1-11.58-6.92a49.2,49.2,0,0,1,.69-6.62c.62-3.9-.4-7.07-4-9-5.27-2.9-7.82-7.1-6.74-13.2a3.32,3.32,0,0,0,0-.63c.05-4.29-1.2-6.08-5.41-7.17A16.22,16.22,0,0,1,513.69,355Z" transform="translate(-17 -310.49)"/><path class="cls-2" d="M559.83,310.71c-27.74-.3-52.19,22-52.16,51.64A51.49,51.49,0,0,0,559.39,414c28.31,0,51.62-23.12,51.7-51.32A52,52,0,0,0,559.83,310.71Zm-.76,51.05c-1,1.85-2,3.66-3,5.49-2,3.63-2.83,7.36-1.12,11.37a10.21,10.21,0,0,1,.44,6,23.52,23.52,0,0,1-6.5,12.8,6.17,6.17,0,0,1-.46.43c-1.27,1.1-2.67,2.41-4.42,1.64s-.65-2.62-1-3.76c.22-2.48.41-4.77.61-7.05a11.75,11.75,0,0,0-5.09-11,5.69,5.69,0,0,0-.86-.59c-3.63-1.92-5.28-4.42-4.77-9,.79-7.27-2.53-11.16-9.7-13.07a10.29,10.29,0,0,1-4.54-2.43,7.26,7.26,0,0,1-1.79-8.86,47.41,47.41,0,0,1,24.69-24.26c1.81-.8,2.9-.6,3.86,1.2,2.28,4.22,4.78,8.32,5.07,13.3a8.12,8.12,0,0,1-4.92,8.4c-1.68.83-3.47,1.44-5.13,2.3-4.42,2.32-5.91,6.25-3.93,10.21A8.38,8.38,0,0,0,548,358.94c1.56-.76,3-1.72,4.62-2.41a5.14,5.14,0,0,1,6.72,2.83A2.76,2.76,0,0,1,559.07,361.76Zm11.61-28c-1,.74-2,1.28-3.25.51a3.41,3.41,0,0,1-1.53-3.41,13.77,13.77,0,0,1,1.86-5.25,35.15,35.15,0,0,1,4.44-6.51,1.63,1.63,0,0,1,2-.63,44,44,0,0,1,13.4,7.23c-.05.18-.1.35-.16.53H585.2a13.45,13.45,0,0,0-9.84,3.72A59.34,59.34,0,0,1,570.68,333.73Zm24.05,58.58c-1.46,1.78-2.11,1.77-3.05-.34-2-4.52-.79-8.7,1.74-12.6a14.22,14.22,0,0,0,2.26-11.29,9.77,9.77,0,0,0-8.12-7.91l-.2,0c-3.84-.7-6.18-2.53-6.58-5.11s1.8-6.35,4.9-7.85c4-1.93,8.28-2.21,12.61-1.86,4.62.38,4.63.45,5.85,5a39.42,39.42,0,0,1,1.53,10.43C605.57,373.71,601.93,383.66,594.73,392.31Z" transform="translate(-17 -310.49)"/><path class="cls-3" d="M543.06,395.69c.31,1.15-.75,3,1,3.76s3.14-.53,4.43-1.64c.15-.13.3-.28.45-.43a23.46,23.46,0,0,0,6.5-12.8,10.3,10.3,0,0,0-.43-6c-1.72-4-.86-7.74,1.11-11.37,1-1.84,2-3.64,3-5.49a2.72,2.72,0,0,0,.26-2.4,5.16,5.16,0,0,0-6.73-2.83c-1.59.69-3.05,1.65-4.61,2.41a8.4,8.4,0,0,1-11.43-4.09c-2-4-.48-7.9,3.94-10.2,1.66-.86,3.45-1.48,5.13-2.3a8.14,8.14,0,0,0,4.92-8.41c-.29-5-2.79-9.08-5.07-13.3-1-1.8-2.05-2-3.86-1.2a47.46,47.46,0,0,0-24.69,24.25,7.26,7.26,0,0,0,1.79,8.87,10.29,10.29,0,0,0,4.54,2.43c7.18,1.91,10.49,5.79,9.69,13.07-.5,4.58,1.15,7.08,4.78,9a6.24,6.24,0,0,1,.86.59,11.75,11.75,0,0,1,5.09,11C543.48,390.92,543.27,393.2,543.06,395.69Z" transform="translate(-17 -310.49)"/><path class="cls-3" d="M605.67,360.72a39.48,39.48,0,0,0-1.53-10.43c-1.21-4.53-1.23-4.6-5.84-5-4.33-.36-8.62-.09-12.62,1.86-3.09,1.49-5.31,5.12-4.9,7.84s2.75,4.41,6.58,5.1l.21,0a9.8,9.8,0,0,1,8.11,7.92,14.22,14.22,0,0,1-2.26,11.29c-2.53,3.89-3.77,8.07-1.74,12.6.94,2.11,1.59,2.12,3.06.35C601.93,383.66,605.58,373.71,605.67,360.72Z" transform="translate(-17 -310.49)"/><path class="cls-3" d="M587.43,326.2l.16-.53a43.65,43.65,0,0,0-13.41-7.23,1.63,1.63,0,0,0-2,.63,35.15,35.15,0,0,0-4.44,6.51,13.77,13.77,0,0,0-1.86,5.25,3.42,3.42,0,0,0,1.53,3.42c1.2.76,2.29.21,3.25-.53a55.05,55.05,0,0,0,4.68-3.8,13.45,13.45,0,0,1,9.84-3.72Z" transform="translate(-17 -310.49)"/><path class="cls-2" d="M192.3,414h4.57L161.32,372a5.48,5.48,0,0,1,4-9.17h6.19c14.36,0,27.7-11.75,27.7-26.1h0c0-14.35-13.34-26.1-27.7-26.1h-60.9c0,6.54,5.29,12.59,11.82,12.6l48.2.12c7.61,0,13.84,5.52,13.84,13.14h0c0,7.62-6.44,13-14.07,13h-6.11c-16.69,0-25.17,20.73-13.85,33l17.63,20.45A32,32,0,0,0,192.3,414Z" transform="translate(-17 -310.49)"/><path class="cls-2" d="M73.08,408.25l36-97.56h-.64A21.94,21.94,0,0,0,87.81,325l-22.89,62a2,2,0,0,1-3.83,0l-22.86-62a21.94,21.94,0,0,0-20.59-14.34H17l35.91,97.48A8.67,8.67,0,0,0,61,413.91H65A8.64,8.64,0,0,0,73.08,408.25Z" transform="translate(-17 -310.49)"/><path class="cls-2" d="M109,9.22h13.54a0,0,0,0,1,0,0V92.8a8.44,8.44,0,0,1-8.44,8.44H109a0,0,0,0,1,0,0v-92A0,0,0,0,1,109,9.22Z"/><path class="cls-2" d="M238.31,414h0l.13-46.16a4.93,4.93,0,0,1,4.93-4.93H260a26,26,0,0,0,26.05-26h0A26,26,0,0,0,260,310.77H196.89a12.62,12.62,0,0,0,12.58,12.61l49.55.12a13.06,13.06,0,0,1,13,13.06h0a13,13,0,0,1-13,13.05H250.8l-15,.1A10.94,10.94,0,0,0,225,360.65l0,40A13.35,13.35,0,0,0,238.31,414Z" transform="translate(-17 -310.49)"/><path class="cls-2" d="M207.92.22h13a0,0,0,0,1,0,0V81.47a8.44,8.44,0,0,1-8.44,8.44h-4.52a0,0,0,0,1,0,0V.22A0,0,0,0,1,207.92.22Z"/><path class="cls-2" d="M613.35,9.22h13.54a0,0,0,0,1,0,0V96.31a8.44,8.44,0,0,1-8.44,8.44h-5.1a0,0,0,0,1,0,0V9.22A0,0,0,0,1,613.35,9.22Z"/><path class="cls-2" d="M579.43,0h84.28a0,0,0,0,1,0,0V4.85a8,8,0,0,1-8,8H587.46a8,8,0,0,1-8-8V0A0,0,0,0,1,579.43,0Z"/><path class="cls-2" d="M291.24,414.51h0c8.35,0,15.12-7.25,15.12-16.19V346.25c0-10.32,7.82-18.68,17.46-18.68h18.41c9.64,0,17.46,8.36,17.46,18.68v52.07c0,8.94,6.77,16.19,15.13,16.19H375V345.35c0-19.14-14.5-34.64-32.38-34.64h-19c-17.88,0-32.37,15.5-32.37,34.64Z" transform="translate(-17 -310.49)"/><path class="cls-2" d="M289.36,52.87h53.32a0,0,0,0,1,0,0v4.66A7.71,7.71,0,0,1,335,65.25H297.08a7.71,7.71,0,0,1-7.71-7.71V52.87A0,0,0,0,1,289.36,52.87Z"/><path class="cls-2" d="M479.87,321.25H408.21l1.14-3.88a9.28,9.28,0,0,1,8.91-6.66h51.56a9.28,9.28,0,0,1,8.91,6.66Z" transform="translate(-17 -310.49)"/><path class="cls-2" d="M367.8,21h3.27a0,0,0,0,1,0,0V40.67a0,0,0,0,1,0,0H367.8a3.28,3.28,0,0,1-3.28-3.28V24.29A3.28,3.28,0,0,1,367.8,21Z"/><path class="cls-2" d="M502.28,331.5h3.27a0,0,0,0,1,0,0v19.66a0,0,0,0,1,0,0h-3.27a3.28,3.28,0,0,1-3.28-3.28v-13.1A3.28,3.28,0,0,1,502.28,331.5Z" transform="translate(987.54 372.17) rotate(-180)"/><circle class="cls-1" cx="401.48" cy="30.84" r="6.19"/><circle class="cls-1" cx="449.56" cy="30.84" r="6.19"/><path class="cls-3" d="M495.79,414.51h5.7l-35.55-38.86a5.48,5.48,0,0,1,4-9.17h7.8A24.5,24.5,0,0,0,502.27,342h0c0-13.53-11-25.06-24.49-25.06l-59.3.56h0a11.85,11.85,0,0,0,11.82,11.86l46.59.12a12.27,12.27,0,0,1,12.24,12.27h0A12.28,12.28,0,0,1,476.88,354h-7.72c-16.69,0-25.38,19.9-14.06,32.17l17.84,18.57A31.63,31.63,0,0,0,495.79,414.51Z" transform="translate(-17 -310.49)"/><path class="cls-3" d="M390.86,414.51h-5.71l35.55-38.86a5.48,5.48,0,0,0-4-9.17h-7.79A24.5,24.5,0,0,1,384.37,342h0c0-13.53,11-25.06,24.5-25.06l59.3.56h0a11.85,11.85,0,0,1-11.83,11.86l-46.59.12a12.27,12.27,0,0,0-12.24,12.27h0A12.28,12.28,0,0,0,409.76,354h7.72c16.69,0,25.38,19.9,14.06,32.17L413.7,404.77A31.62,31.62,0,0,1,390.86,414.51Z" transform="translate(-17 -310.49)"/></svg>